<svg width="24" height="24" viewBox="0 0 24 24" fill="none" xmlns="http://www.w3.org/2000/svg">
<path d="M3.9998 21V8.1L2.0498 3.85L3.8498 3L6.1998 8.05H17.7998L20.1498 3L21.9498 3.85L19.9998 8.1V21H3.9998ZM9.9998 14H13.9998C14.2831 14 14.5206 13.9042 14.7123 13.7125C14.904 13.5208 14.9998 13.2833 14.9998 13C14.9998 12.7167 14.904 12.4792 14.7123 12.2875C14.5206 12.0958 14.2831 12 13.9998 12H9.9998C9.71647 12 9.47897 12.0958 9.2873 12.2875C9.09564 12.4792 8.9998 12.7167 8.9998 13C8.9998 13.2833 9.09564 13.5208 9.2873 13.7125C9.47897 13.9042 9.71647 14 9.9998 14ZM5.9998 19H17.9998V10.05H5.9998V19Z" fill="#5B5757"/>
</svg>
